<svg id="Layer_1" data-name="Layer 1" xmlns="http://www.w3.org/2000/svg" viewBox="0 0 503.44 147.45">
  <defs>
    <style>
      .cls-1 {
        fill: #262626;
      }
    </style>
  </defs>
  <g>
    <path class="cls-1" d="M69.14,139.83c0,24.33-7.62,50.25-19.26,68,8.34,19.88,20.41,23.91,20.41,24.92,0,1.58-2.3,2.73-5.17,2.73-1.73,0-12.94-4.75-22.43-18.43-7.19,7.63-15.38,12.24-24,12.24-23.43,0-44.13-16.27-44.13-36,0-12.1,8.62-18.72,18.4-18.72,17.54,0,30.62,14.26,30.62,17.71,0,2.45-2.44,3.75-4.74,3.75s-12.22-16.42-26-16.42c-5.75,0-8.92,4-8.92,9.07,0,15.7,20.56,33,37.52,33,6.47,0,12.51-3.75,17.83-9.94C33.49,201.17,29,186.77,29,167c0-35.85,14.38-52.12,24.73-52.12C62.24,114.92,69.14,123.56,69.14,139.83ZM47,200c8.63-16,14.09-38.88,14.09-60.77,0-14.83-3-19.44-6.9-19.44-5.17,0-11.93,16.85-11.93,42.19C42.26,178.13,44.13,190.51,47,200Z" transform="translate(25.45 -114.92)"/>
    <path class="cls-1" d="M92.72,154.8c0,4.32-2.59,11.09-4.6,15.27,0,5.47,18.4,18.86,18.4,36.28,0,9.65-9.2,19.44-18.11,19.44-13.37,0-26.6-13.1-26.6-21.74a4.31,4.31,0,0,1,4.46-3.89,9.69,9.69,0,0,1,3,.87s10.78-23.33,10.78-31c-1.58-10.37.43-21.75,4.6-21.75C90,148.32,92.72,150.92,92.72,154.8ZM73.31,206.64c0,2.31,3.16,12.67,9.92,12.67,6.33,0,11.07-7.63,11.07-15.4,0-10.08-8.91-22.47-10.78-25.92C80.64,192.24,73.31,204.19,73.31,206.64Z" transform="translate(25.45 -114.92)"/>
    <path class="cls-1" d="M124.49,166.61c0,5.76-3,13-3,37.3.43-2,10.5-40.18,26.17-40.18a12.16,12.16,0,0,1,12.21,12c0,4.9-4.45,21.17-4.45,33.7,0,4.89,1.72,8.35,4.74,8.35,4.46,0,11.07-15.84,11.07-15.84s.58-1.58,1.73-1.58a2.36,2.36,0,0,1,2.44,2,13.28,13.28,0,0,1-.43,2.31s-3.31,9.64-7.48,15.26c-2.3,3-5.89,4.18-9.92,4.18-7,0-13.94-7.2-13.94-20.31,0-14.11,4.6-24.77,4.6-31.39,0-2.3-.72-3.45-2.3-3.45-6.61,0-22.14,32.54-22.14,48.67,0,4.32.43,5.18.43,6.76,0,1.16-2.59,1.88-4.17,1.88-4.6,0-8.91-9.08-8.91-26.93s1.87-26.64,2.73-30,4.17-5.62,6.47-5.62C123.77,163.73,124.49,165.17,124.49,166.61Z" transform="translate(25.45 -114.92)"/>
    <path class="cls-1" d="M190.48,131c0,10.8-2.16,18.87-6.62,24.2-2.3,2.73-4.31,3.88-5.17,3.88a1.5,1.5,0,0,1-1.58-1.58c0-1.15,3.59-6.62,3.59-14.11,0-1.3-7-5.76-7-15.84,0-6.34,2.87-11.09,7.9-11.09S190.48,121.54,190.48,131Z" transform="translate(25.45 -114.92)"/>
    <path class="cls-1" d="M198,163c.43-5.9.86-10.37.86-12.81,0-5.76-.72-5.91-.72-7.2s1-1.73,2.45-1.73c3.88,0,8.48,3,8.48,7.92,0,2.3-.58,7.05-1.15,14.25,2.87.15,5.75.29,7.76.29,3.31,0,5.75.29,5.75,1,0,1.87-2.87,4.89-5.75,4.89h-8.19c-.43,7.35-.72,16.56-.72,27.8,0,13.82,4.6,20.3,9.34,20.3s11.22-15.84,11.22-15.84.43-1.58,1.58-1.58a2.27,2.27,0,0,1,2.44,2,13.28,13.28,0,0,1-.43,2.31s-3.31,9.64-7.33,15.26c-2.3,3-6.47,5.9-10.5,5.9-8.48,0-17-8.49-17-23.32,0-11.67.72-23.48,1.44-33.12-3.17-.15-5.47-.58-5.47-1.16a5.3,5.3,0,0,1,5.61-5.18Z" transform="translate(25.45 -114.92)"/>
    <path class="cls-1" d="M256.31,254.59c0-4.75,1.73-12,6.76-21.16,0-12.68-1-23.33-1-23.33s-5.75,16.27-16.24,16.27c-8.48,0-19.12-7.34-19.12-25.06,0-26.35,15.67-37.87,26.59-37.87,9.49,0,11.79,6.48,11.79,6.48s3.17-1.58,4.89-1.58c1.44,0,2.16.86,2.16,2.73,0,2.6-2.16,5.62-2.16,21,0,14.25,1.73,22.46,2.73,31.82,5.46-7.92,11.79-22,11.79-22s.57-1.58,1.73-1.58a2.37,2.37,0,0,1,2.44,2,13.28,13.28,0,0,1-.43,2.31s-5,15.12-15.1,26.2a37.65,37.65,0,0,1,.15,4.18c0,21.6-7.19,27.36-11.36,27.36C259,262.37,256.31,259.63,256.31,254.59ZM259,192.67c0-2.59,1.73-4.46,1.73-17,0-4-2.3-7.34-5.18-7.34-8.19,0-17,14-17,33,0,13.83,4.31,18.15,8.34,18.15,5,0,11.21-11.09,14.81-22.61C261.78,196.85,259,195.27,259,192.67Z" transform="translate(25.45 -114.92)"/>
    <path class="cls-1" d="M285.35,207.22a2,2,0,0,1-2-2,4.33,4.33,0,0,1,.43-1.73c3.45-7.34,6.76-19.44,6.76-28.07,0-1.3-6.76-8.65-6.76-15.56S285.64,145,290.39,145c3.59,0,7.9,3.6,7.9,7.63a74.74,74.74,0,0,1-2,17.86c0,5.47,18.54,4.61,18.54,14.11,0,4.61-3.16,13-3.16,23.62,0,5.76,3.45,9.5,6.61,9.5,4.6,0,11.22-15.84,11.22-15.84s.43-1.58,1.58-1.58a2.27,2.27,0,0,1,2.44,2,13.28,13.28,0,0,1-.43,2.31s-3.31,9.64-7.33,15.26c-2.3,3-5.9,4.18-10.06,4.18-6.47,0-15.39-7.2-15.39-20.45,0-8.93,2.74-15.41,2.74-19.87,0-3.17-3-3.75-7.19-5.19a201.82,201.82,0,0,1-7.77,26.07C287.37,206.64,286.93,207.22,285.35,207.22Z" transform="translate(25.45 -114.92)"/>
    <path class="cls-1" d="M386.13,201.89s.43-1.58,1.72-1.58a2.37,2.37,0,0,1,2.45,2,10.3,10.3,0,0,1-.58,2.31s-3.31,9.64-7.33,15.26a9.79,9.79,0,0,1-8.63,4.18c-7.61,0-12.07-7.35-12.07-12.53-2.16,5.9-7.05,14-15.81,14-6.91,0-17.4-5.91-17.4-22.32,0-22.47,13.8-39,27.89-39,10.64,0,13.08,9.07,13.08,9.07s5.75,1.88,5.75,6.77-1.44,11.23-4.17,24.34c0,7.92,1.15,13.53,3.45,13.53C379.08,217.87,386.13,201.89,386.13,201.89Zm-45.43,3.74c0,9.94,3,14,6.47,14,4.31,0,11.5-9.93,13.8-22.89,1.44-8.5,3.16-15.41,3.16-20.6-.72-3.74-3.74-6.19-6.47-6.19C349,169.92,340.7,188.79,340.7,205.63Z" transform="translate(25.45 -114.92)"/>
    <path class="cls-1" d="M399.93,171.07c0,5.19-3.74,22.18-3.74,34.56.43-3.6,6-39.88,22.86-39.88,12.07,0,13.51,10.08,12.65,20.16.57-2.45,7-23.91,17.68-23.91,8.63,0,13.37,5.62,13.37,13,0,8.5-5.89,21.75-5.89,35,0,4.47,2.15,7.78,5.89,7.78,4.6,0,11.21-15.84,11.21-15.84s.44-1.58,1.73-1.58a2.22,2.22,0,0,1,2.3,2,13.28,13.28,0,0,1-.43,2.31s-3.31,9.64-7.33,15.26c-2.3,3-5.9,4.18-10.07,4.18-8.62,0-15.09-7.92-15.09-17.43,0-17.42,7-26.35,7-36.14,0-1.87-.86-2.88-2.58-2.88-7.19,0-20.85,32.69-20.85,47.52,0,3.31.58,6.19.58,7.92a2.63,2.63,0,0,1-2.45,2.45c-2.73,0-5.75-.87-7-2.88-2.3-3.6-2.3-7.2-2.3-12,0-14.25,4-24.91,4-35,0-3.74-1.15-5.18-3.3-5.18-10.36,0-18.41,40.46-18.41,50.25,0,1.88-2.15,4.9-8,4.9-3.16,0-6.18-4.61-6.18-17.14s2.88-31.68,2.88-38.16c0-3.6-.43-3.6-.43-5.47,0-1.44,2.15-2,3.73-2C397.77,162.87,399.93,166.61,399.93,171.07Z" transform="translate(25.45 -114.92)"/>
  </g>
</svg>